<svg width="360" height="800" viewBox="0 0 360 800" fill="none" xmlns="http://www.w3.org/2000/svg">
<g filter="url(#filter0_f_1_32)">
<path d="M54.2179 -156.388C-13.0802 -239.779 -89.1565 -77.3858 -96.4715 60.1366C-108.663 88.909 -128.95 153.476 -112.565 181.566C-92.0825 216.678 -87.6935 222.53 -51.1184 256.179C-14.5433 289.828 67.3849 354.201 112.738 322.014C158.091 289.828 141.998 314.699 219.537 244.475C297.077 174.251 215.148 221.067 177.11 104.027C139.072 -13.0136 175.647 68.9146 133.22 1.61644C90.793 -65.6818 121.516 -72.9968 54.2179 -156.388Z" fill="#B34416" fill-opacity="0.2"/>
<path d="M346.819 431.74C316.096 345.422 311.707 444.907 242.945 626.319C235.143 658.018 233.875 756.234 291.225 895.512C362.912 1069.61 324.874 926.235 346.819 873.567C368.764 820.899 406.802 850.159 453.618 803.343C500.434 756.527 450.692 753.601 415.58 655.579C380.468 557.558 405.339 626.319 380.468 566.336C355.597 506.353 377.542 518.057 346.819 431.74Z" fill="#B34416" fill-opacity="0.2"/>
</g>
<defs>
<filter id="filter0_f_1_32" x="-268.699" y="-329.159" width="891.397" height="1458.32" filterUnits="userSpaceOnUse" color-interpolation-filters="sRGB">
<feFlood flood-opacity="0" result="BackgroundImageFix"/>
<feBlend mode="normal" in="SourceGraphic" in2="BackgroundImageFix" result="shape"/>
<feGaussianBlur stdDeviation="75" result="effect1_foregroundBlur_1_32"/>
</filter>
</defs>
</svg>
